<?xml version="1.0" ?><svg style="enable-background:new 0 0 256 256;" version="1.1" viewBox="0 0 256 256" xml:space="preserve" xmlns="http://www.w3.org/2000/svg" xmlns:xlink="http://www.w3.org/1999/xlink"><style type="text/css">
	.st0{fill:#00A388;}
	.st1{fill:#EA685E;stroke:#00886F;stroke-width:15;stroke-miterlimit:10;}
	.st2{fill:#E8E8E8;}
	.st3{fill:#FFFFFF;stroke:#00886F;stroke-width:15;stroke-miterlimit:10;}
	.st4{fill:#00886F;}
	.st5{fill:#FFFFFF;}
	.st6{fill:#CCCCCC;}
	.st7{fill:none;stroke:#00A388;stroke-width:4;stroke-miterlimit:10;}
	.st8{fill:#EA685E;}
	.st9{fill:#FFAB80;}
	.st10{fill:#2C3E50;}
	.st11{fill:#4B687F;}
	.st12{fill:none;stroke:#3E5063;stroke-width:4;stroke-miterlimit:10;}
	.st13{fill:#FFD766;}
	.st14{fill:#FFE6D3;}
	.st15{fill:#F09A79;}
	.st16{fill:#C91E01;}
	.st17{fill:#EA3B28;}
	.st18{fill:#0F627F;}
	.st19{fill:#005670;}
	.st20{filter:url(#Adobe_OpacityMaskFilter);}
	.st21{mask:url(#SVGID_2_);}
	.st22{fill:#8C623B;}
	.st23{fill:#E6E6E6;stroke:#005670;stroke-width:16;stroke-miterlimit:10;}
	.st24{opacity:0.6;}
	.st25{fill:#E6E6E6;}
	.st26{fill:#FFEC82;}
	.st27{fill:#FFCF3A;}
	.st28{filter:url(#Adobe_OpacityMaskFilter_1_);}
	.st29{mask:url(#SVGID_1_);}
	.st30{fill:#603813;}
	.st31{fill:#F2F2F2;}
	.st32{fill:#666666;}
</style><g id="Layer_2"><circle class="st2" cx="128" cy="128" r="120"/></g><g id="Layer_1"><g><g><rect class="st18" height="41.579594" width="13.474044" x="114.517838" y="164.159042"/></g><g><circle class="st17" cx="121.083847" cy="117.481102" r="71.583847"/></g><g><path class="st5" d="M121.084183,174.746078c-31.576027,0-57.264687-25.688644-57.264687-57.264679     s25.68866-57.26469,57.264687-57.26469s57.264694,25.688656,57.264694,57.26469S152.660217,174.746078,121.084183,174.746078z      M121.084183,73.690758c-24.146317,0-43.790642,19.644318-43.790642,43.790642s19.644325,43.790649,43.790642,43.790649     s43.790649-19.644333,43.790649-43.790649S145.230499,73.690758,121.084183,73.690758z"/></g><g><path class="st5" d="M121.084183,147.798004c-16.716614,0-30.316597-13.599991-30.316597-30.316605     s13.599983-30.316605,30.316597-30.316605s30.316605,13.599991,30.316605,30.316605S137.800797,147.798004,121.084183,147.798004     z M121.084183,100.63884c-9.286903,0-16.842552,7.555656-16.842552,16.84256s7.555649,16.84256,16.842552,16.84256     s16.84256-7.555656,16.84256-16.84256S130.371094,100.63884,121.084183,100.63884z"/></g><g><g><path class="st19" d="M170.291946,210.102097H71.900787c-2.052971,0-2.556793-2.909485-0.56678-3.577042      c9.395805-3.161331,24.786705-5.415863,42.306221-5.91954h14.899673v0.05043      c17.519516,0.516281,32.910431,2.758209,42.318832,5.919525C172.798325,207.243042,172.332321,210.152222,170.291946,210.102097      z"/></g></g><g><path class="st18" d="M201.687836,122.293556h-80.603653c-2.657967,0-4.812157-2.15419-4.812157-4.812157     s2.15419-4.812157,4.812157-4.812157h80.603653c2.657974,0,4.812164,2.15419,4.812164,4.812157     S204.34581,122.293556,201.687836,122.293556z"/></g><g><polygon class="st19" points="206.018448,130.662857 180.276199,130.662857 175.664734,118.997307 201.406998,118.997307    "/></g><g><polygon class="st19" points="206.018448,104.324799 180.276199,104.324799 175.664734,115.990356 201.406998,115.990356    "/></g></g></g></svg>