<?xml version="1.0" encoding="utf-8"?>
<!-- Generator: Adobe Illustrator 17.1.0, SVG Export Plug-In . SVG Version: 6.00 Build 0)  -->
<!DOCTYPE svg PUBLIC "-//W3C//DTD SVG 1.1//EN" "http://www.w3.org/Graphics/SVG/1.1/DTD/svg11.dtd">
<svg version="1.1" id="page-layout" xmlns="http://www.w3.org/2000/svg" xmlns:xlink="http://www.w3.org/1999/xlink" x="0px"
	 y="0px" viewBox="0 0 1009.9766 1009.9702" enable-background="new 0 0 1009.9766 1009.9702" xml:space="preserve">
<g id="page-layout-label">
	<path fill="#584D5C" d="M505,0C226.1196,0,0,226.143,0,505c0,278.9096,226.1196,504.9702,505,504.9702
		c278.8809,0,504.9766-226.0605,504.9766-504.9702C1009.9766,226.143,783.8809,0,505,0z"/>
</g>
<g id="page-layout-page-layout">
	<g>
		<path fill="#FFFFFF" d="M718.5586,224.3315v561.3184H291.418V224.3315h418.0703H718.5586z M700.3955,242.4467
			c-16.9717,0-373.8427,0-390.8144,0c0,17.2579,0,507.8066,0,525.04c16.9717,0,373.8427,0,390.8144,0
			C700.3955,750.2534,700.3955,259.7046,700.3955,242.4467z"/>
		<g>
			<rect x="352.5811" y="513.6518" fill="#FFFFFF" width="120.2881" height="10.9238"/>
			<rect x="352.5811" y="543.7866" fill="#FFFFFF" width="120.2881" height="10.9414"/>
			<rect x="352.5811" y="573.9155" fill="#FFFFFF" width="120.2881" height="10.917"/>
			<rect x="352.5811" y="604.02" fill="#FFFFFF" width="120.2881" height="10.917"/>
			<rect x="353.1055" y="652.8598" fill="#FFFFFF" width="147.7471" height="71.5078"/>
			<polygon fill="#FFFFFF" points="652.7471,513.271 647.2891,513.271 507.9199,513.271 507.9199,615.5092 652.7471,615.5092 			"/>
			<rect x="535.0694" y="713.4985" fill="#FFFFFF" width="122.3496" height="10.8691"/>
			<rect x="535.0694" y="683.3706" fill="#FFFFFF" width="122.3496" height="10.8691"/>
			<rect x="535.0694" y="653.2417" fill="#FFFFFF" width="122.3496" height="10.8925"/>
			<rect x="352.5811" y="434.0639" fill="#FFFFFF" width="304.8379" height="10.8692"/>
			<rect x="352.5811" y="467.7446" fill="#FFFFFF" width="304.8379" height="10.8691"/>
			<rect x="352.5811" y="403.9116" fill="#FFFFFF" width="304.8379" height="10.917"/>
			<rect x="352.5811" y="285.5664" fill="#FFFFFF" width="304.8379" height="87.144"/>
		</g>
	</g>
</g>
</svg>
